<?xml version="1.0" encoding="utf-8"?>
<!-- Generator: Adobe Illustrator 22.0.0, SVG Export Plug-In . SVG Version: 6.00 Build 0)  -->
<svg version="1.1" id="Слой_1" xmlns="http://www.w3.org/2000/svg" xmlns:xlink="http://www.w3.org/1999/xlink" x="0px" y="0px"
	 viewBox="0 0 226.8 61.2" style="enable-background:new 0 0 226.8 61.2;" xml:space="preserve">
<style type="text/css">
	.st0{fill:#FFFFFF;}
</style>
<path class="st0" d="M25.9,17.5L9.1,7.4L20,2.3c3-1.4,5.8,0.1,5.8,3.1L25.9,17.5z"/>
<path class="st0" d="M41.6,35.4c0,1.6-0.8,3.1-2.2,3.9l-31.8,19c-1.3,0.8-2.9,0.8-4.3,0C2,57.5,1.2,56,1.2,54.4V16.4
	c0-1.6,0.8-3.1,2.1-3.9c0.7-0.4,1.4-0.6,2.1-0.6c0.7,0,1.5,0.2,2.1,0.6l17.4,10.4l14.4,8.6C40.8,32.3,41.6,33.8,41.6,35.4"/>
<path class="st0" d="M66.2,27.5c-1,0-2,0.2-2.9,0.5c-0.9,0.3-1.8,0.8-2.7,1.4v15.3c1.6,1.2,3.5,1.8,5.6,1.8c2.4,0,4.3-0.9,5.7-2.6
	c1.4-1.7,2.1-4,2.1-6.8c0-2.9-0.7-5.2-2.1-7C70.6,28.4,68.7,27.5,66.2,27.5z M66.1,52.2c-1.1,0-2.3-0.2-3.6-0.7
	c-1.2-0.4-2.3-1-3.3-1.6c-0.1-0.1-0.2-0.1-0.3-0.1c-0.2,0-0.3,0.1-0.4,0.2l-0.7,1c-0.2,0.3-0.5,0.4-0.9,0.4h-2.2
	c-0.4,0-0.8-0.4-0.8-0.9V11c0-0.5,0.3-0.8,0.7-0.9l5.1-0.5c0,0,0.1,0,0.1,0c0.5,0,0.8,0.4,0.8,0.9v12.9c1.9-1,3.9-1.5,5.7-1.5
	c2.9,0,5.5,0.6,7.7,1.9c2.2,1.2,3.9,3,5.1,5.3c1.2,2.3,1.8,5,1.8,8.1c0,3-0.6,5.6-1.8,7.9c-1.2,2.3-2.9,4.1-5.1,5.3
	C71.7,51.6,69.1,52.2,66.1,52.2z"/>
<path class="st0" d="M86.9,17.5c-1.6,0-2.8-0.8-3.6-2.3c0-0.1-0.1-0.1-0.1-0.2c-0.5-1.7-0.1-3.1,0.9-4.2c0.7-0.8,1.7-1.1,2.7-1.1
	c1.1,0,2.1,0.4,2.8,1.1c0.8,0.8,1.2,1.7,1.2,2.7c0,1.1-0.4,2-1.2,2.8C88.9,17.1,88,17.5,86.9,17.5z M90.1,48.8H85
	c-0.4,0-0.8-0.4-0.8-0.8V22.8c0-0.5,0.4-0.8,0.8-0.8h5.1c0.4,0,0.8,0.4,0.8,0.8V48C90.9,48.5,90.5,48.8,90.1,48.8z"/>
<path class="st0" d="M102.1,10.4V48c0,0.5-0.4,0.8-0.8,0.8h-5.1c-0.5,0-0.8-0.4-0.8-0.8V10.9c0-0.4,0.3-0.8,0.7-0.8l5.1-0.5
	C101.7,9.6,102.1,10,102.1,10.4"/>
<path class="st0" d="M119,26.4c-1.9,0-3.5,0.6-4.7,1.8c-1.1,1.1-1.8,2.6-2.1,4.5c0,0.1,0,0.2,0.1,0.3c0.1,0.1,0.2,0.1,0.3,0.1h12.7
	c0.1,0,0.2,0,0.3-0.1c0.1-0.1,0.1-0.2,0.1-0.3c-0.4-2-1.1-3.5-2.1-4.6C122.3,27,120.8,26.4,119,26.4z M121.5,51.1
	c-2.6,0-4.9-0.3-6.9-1c-2-0.7-3.7-1.7-5-3c-1.4-1.3-2.4-3-3.1-4.8c-0.7-1.8-1-3.9-1-6.3c0-3,0.6-5.7,1.7-7.9c1.1-2.3,2.8-4,4.9-5.3
	c2.1-1.3,4.6-1.9,7.5-1.9c2.1,0,4,0.4,5.6,1.1c1.6,0.7,2.9,1.8,4,3.2c2.2,2.8,3.3,6.4,3.3,10.7v1.1c0,0.5-0.4,0.9-0.8,0.9h-18.7
	c-0.1,0-0.2,0-0.2,0.1c-0.1,0.1-0.1,0.2-0.1,0.3c0.7,4.8,3.8,7.3,9.1,7.3c1.5,0,2.9-0.2,4.1-0.6c1-0.4,2.2-0.9,3.6-1.6
	c0.1-0.1,0.2-0.1,0.3-0.1c0.3,0,0.6,0.2,0.7,0.5l1.4,3.3c0.2,0.4,0,0.9-0.3,1.1C128.5,50.1,125.1,51.1,121.5,51.1z"/>
<path class="st0" d="M147,22.1h4.6c0.3,0,0.6,0.2,0.8,0.5l1.4,3.3c0.2,0.6-0.2,1.2-0.8,1.2h-6c-0.1,0-0.2,0.1-0.2,0.2v13.2
	c0,1.5,0.4,2.7,1.1,3.6c0.7,0.9,1.8,1.4,3.2,1.4c0.7,0,1.5-0.1,2.4-0.4c0.4-0.1,0.9,0.1,1,0.5l1.3,3.3c0.2,0.4,0,0.9-0.5,1.1
	c-0.5,0.2-1.1,0.4-1.8,0.6c-1.1,0.3-2.1,0.4-3,0.4c-3.3,0-6-0.8-7.8-2.4c-1.9-1.6-2.8-4-2.8-7V27.3c0-0.1-0.1-0.2-0.2-0.2h-3.1
	c-0.5,0-0.8-0.4-0.8-0.9V23c0-0.5,0.4-0.9,0.8-0.9h3.1c0.1,0,0.2-0.1,0.2-0.2v-6c0-0.4,0.3-0.8,0.7-0.8l5.2-1c0.5-0.1,1,0.3,1,0.8
	v6.9C146.8,22,146.9,22.1,147,22.1"/>
<path class="st0" d="M167.2,22.1h4.6c0.3,0,0.6,0.2,0.8,0.5l1.4,3.3c0.2,0.6-0.2,1.2-0.8,1.2h-6c-0.2,0-0.3,0.1-0.3,0.3v13.1
	c0,1.5,0.4,2.7,1.1,3.6c0.7,0.9,1.8,1.4,3.2,1.4c0.7,0,1.5-0.1,2.4-0.4c0.4-0.1,0.9,0.1,1,0.5l1.3,3.3c0.2,0.4,0,0.9-0.5,1.1
	c-0.5,0.2-1.1,0.4-1.8,0.6c-1.1,0.3-2.1,0.4-3,0.4c-3.3,0-6-0.8-7.8-2.4c-1.9-1.6-2.8-4-2.8-7V27.4c0-0.2-0.1-0.3-0.3-0.3h-3
	c-0.5,0-0.8-0.4-0.8-0.9V23c0-0.5,0.4-0.9,0.8-0.9h3c0.2,0,0.3-0.1,0.3-0.3v-5.9c0-0.4,0.3-0.8,0.7-0.8l5.2-1c0.5-0.1,1,0.3,1,0.8
	v6.9C166.9,22,167.1,22.1,167.2,22.1"/>
<path class="st0" d="M225.3,31.6v18.6c0,0.5-0.4,0.9-0.9,0.9h-5.3c-0.5,0-0.9-0.4-0.9-0.9V32.7c0-2-0.3-3.5-1-4.6
	c-0.6-1-1.7-1.5-3.3-1.5c-1.2,0-2.5,0.3-3.8,1c-1.3,0.7-2.6,1.5-4.1,2.6c-0.1,0.1-0.2,0.2-0.2,0.4l0.1,1v18.6c0,0.5-0.4,0.9-0.9,0.9
	h-5.3c-0.5,0-0.8-0.4-0.8-0.9V32.7c0-2-0.3-3.5-1-4.6c-0.6-1-1.7-1.5-3.3-1.5c-2.2,0-4.9,1.3-8.2,3.9c-0.1,0.1-0.2,0.2-0.2,0.3v19.4
	c0,0.5-0.4,0.9-0.9,0.9h-5.3c-0.5,0-0.9-0.4-0.9-0.9V22.7c0-0.5,0.4-0.9,0.9-0.9h3.2c0.4,0,0.7,0.2,0.8,0.6l0.9,2.6
	c0.1,0.2,0.2,0.2,0.4,0.1c1.7-1.2,3.4-2.2,5.3-3c2-0.8,3.8-1.2,5.5-1.2c4,0,6.7,1.4,8.2,4.2c0.1,0.1,0.2,0.2,0.3,0.1
	c1.7-1.3,3.5-2.3,5.4-3c2-0.8,3.8-1.2,5.5-1.2c3.3,0,5.7,0.9,7.3,2.8C224.6,25.6,225.3,28.2,225.3,31.6"/>
</svg>
